<svg width="141" height="112" viewBox="0 0 141 112" fill="none" xmlns="http://www.w3.org/2000/svg">
<path d="M68.0733 3.33869C69.2713 1.69047 71.7287 1.69047 72.9267 3.33869L128.092 79.2362C129.534 81.2192 128.117 84 125.666 84H15.3345C12.883 84 11.4664 81.2192 12.9078 79.2362L68.0733 3.33869Z" fill="white"/>
<path d="M46.5801 57.4724C47.1188 56.4409 48.3916 56.0414 49.4231 56.58L68.0996 66.3331C69.1311 66.8718 69.5306 68.1446 68.9919 69.1761L54.836 96.2839C53.9574 97.9662 51.4769 97.7204 50.9456 95.8984L47.9159 85.5085C47.5807 84.359 46.3561 83.7196 45.2213 84.1014L34.9637 87.5525C33.1648 88.1577 31.5456 86.2625 32.4241 84.5802L46.5801 57.4724Z" fill="#F2F2FB"/>
<path d="M93.4196 57.4724C92.881 56.4409 91.6082 56.0414 90.5767 56.58L71.9002 66.3331C70.8687 66.8718 70.4692 68.1446 71.0078 69.1761L85.1638 96.2839C86.0423 97.9662 88.5229 97.7204 89.0542 95.8984L92.0839 85.5085C92.4191 84.359 93.6436 83.7196 94.7785 84.1014L105.036 87.5525C106.835 88.1577 108.454 86.2625 107.576 84.5802L93.4196 57.4724Z" fill="#F2F2FB"/>
<g filter="url(#filter0_d_553_1779)">
<path d="M70.5 24L99.5118 68.25H41.4881L70.5 24Z" fill="#7B7FDA"/>
<path d="M70.5 24L99.5118 68.25H41.4881L70.5 24Z" stroke="#F2F2FB" stroke-width="6.32093"/>
</g>
<path d="M76.88 53.18H74.8V50.8H71.06V53.18H68.22L73.92 45H69.82L63.54 53.74V56.32H70.94V59H74.8V56.32H76.88V53.18Z" fill="white"/>
<defs>
<filter id="filter0_d_553_1779" x="25.1021" y="11.9149" width="90.7959" height="74.2443" filterUnits="userSpaceOnUse" color-interpolation-filters="sRGB">
<feFlood flood-opacity="0" result="BackgroundImageFix"/>
<feColorMatrix in="SourceAlpha" type="matrix" values="0 0 0 0 0 0 0 0 0 0 0 0 0 0 0 0 0 0 127 0" result="hardAlpha"/>
<feOffset dy="4.21396"/>
<feGaussianBlur stdDeviation="5.26744"/>
<feComposite in2="hardAlpha" operator="out"/>
<feColorMatrix type="matrix" values="0 0 0 0 0.188235 0 0 0 0 0.0784314 0 0 0 0 0.27451 0 0 0 0.25 0"/>
<feBlend mode="normal" in2="BackgroundImageFix" result="effect1_dropShadow_553_1779"/>
<feBlend mode="normal" in="SourceGraphic" in2="effect1_dropShadow_553_1779" result="shape"/>
</filter>
</defs>
</svg>
