<svg width="104" height="106" viewBox="0 0 104 106" fill="none" xmlns="http://www.w3.org/2000/svg">
<path d="M50.6932 1.7941C51.3389 0.907635 52.6611 0.907636 53.3068 1.7941L65.149 18.0526C65.5061 18.5428 66.1076 18.792 66.7067 18.6978L86.5769 15.575C87.6603 15.4048 88.5952 16.3397 88.425 17.4231L85.3022 37.2933C85.208 37.8924 85.4572 38.4939 85.9474 38.851L102.206 50.6932C103.092 51.3389 103.092 52.6611 102.206 53.3068L85.9474 65.149C85.4572 65.5061 85.208 66.1076 85.3022 66.7067L88.425 86.5769C88.5952 87.6603 87.6603 88.5952 86.5769 88.425L66.7067 85.3022C66.1076 85.208 65.5061 85.4572 65.149 85.9474L53.3068 102.206C52.6611 103.092 51.3389 103.092 50.6932 102.206L38.851 85.9474C38.4939 85.4572 37.8924 85.208 37.2933 85.3022L17.4231 88.425C16.3397 88.5952 15.4048 87.6603 15.575 86.5769L18.6978 66.7067C18.792 66.1076 18.5428 65.5061 18.0526 65.149L1.7941 53.3068C0.907635 52.6611 0.907636 51.3389 1.7941 50.6932L18.0526 38.851C18.5428 38.4939 18.792 37.8924 18.6978 37.2933L15.575 17.4231C15.4048 16.3397 16.3397 15.4048 17.4231 15.575L37.2933 18.6978C37.8924 18.792 38.4939 18.5428 38.851 18.0526L50.6932 1.7941Z" fill="white"/>
<path d="M29.7383 62.7728C30.2496 61.7937 31.4578 61.4145 32.4369 61.9258L50.1652 71.1837C51.1443 71.695 51.5235 72.9032 51.0122 73.8823L37.575 99.6137C36.741 101.211 34.3864 100.977 33.8821 99.2478L31.0062 89.3855C30.688 88.2943 29.5257 87.6873 28.4484 88.0498L18.7116 91.3256C17.0041 91.9001 15.4671 90.1012 16.301 88.5043L29.7383 62.7728Z" fill="#7B7FDA"/>
<path d="M74.1997 62.7728C73.6884 61.7937 72.4802 61.4145 71.5011 61.9258L53.7728 71.1837C52.7937 71.695 52.4145 72.9032 52.9258 73.8823L66.363 99.6137C67.197 101.211 69.5516 100.977 70.0559 99.2478L72.9318 89.3855C73.25 88.2943 74.4123 87.6873 75.4896 88.0498L85.2264 91.3256C86.9339 91.9001 88.4709 90.1012 87.637 88.5043L74.1997 62.7728Z" fill="#7B7FDA"/>
<g filter="url(#filter0_d_553_1746)">
<path d="M52 25L59.3934 35.1506L71.799 33.201L69.8493 45.6066L80 53L69.8493 60.3934L71.799 72.799L59.3934 70.8493L52 81L44.6066 70.8493L32.201 72.799L34.1506 60.3934L24 53L34.1506 45.6066L32.201 33.201L44.6066 35.1506L52 25Z" fill="#68BC98"/>
<path d="M54.4249 23.2337L52 19.9045L49.5751 23.2337L43.2611 31.9024L32.6668 30.2374L28.5979 29.5979L29.2374 33.6668L30.9024 44.2611L22.2337 50.5751L18.9045 53L22.2337 55.4249L30.9024 61.7389L29.2374 72.3332L28.5979 76.4021L32.6668 75.7626L43.2611 74.0976L49.5751 82.7663L52 86.0955L54.4249 82.7663L60.7389 74.0976L71.3332 75.7626L75.4021 76.4021L74.7626 72.3332L73.0976 61.7389L81.7663 55.4249L85.0955 53L81.7663 50.5751L73.0976 44.2611L74.7626 33.6668L75.4021 29.5979L71.3332 30.2374L60.7389 31.9024L54.4249 23.2337Z" stroke="url(#paint0_linear_553_1746)" stroke-width="6"/>
</g>
<path d="M48.12 46V49.06H50.72V60H54.68V46H48.12Z" fill="white"/>
<defs>
<filter id="filter0_d_553_1746" x="3.80908" y="8.80908" width="96.3818" height="96.3818" filterUnits="userSpaceOnUse" color-interpolation-filters="sRGB">
<feFlood flood-opacity="0" result="BackgroundImageFix"/>
<feColorMatrix in="SourceAlpha" type="matrix" values="0 0 0 0 0 0 0 0 0 0 0 0 0 0 0 0 0 0 127 0" result="hardAlpha"/>
<feOffset dy="4"/>
<feGaussianBlur stdDeviation="5"/>
<feComposite in2="hardAlpha" operator="out"/>
<feColorMatrix type="matrix" values="0 0 0 0 0.188235 0 0 0 0 0.0784314 0 0 0 0 0.27451 0 0 0 0.25 0"/>
<feBlend mode="normal" in2="BackgroundImageFix" result="effect1_dropShadow_553_1746"/>
<feBlend mode="normal" in="SourceGraphic" in2="effect1_dropShadow_553_1746" result="shape"/>
</filter>
<linearGradient id="paint0_linear_553_1746" x1="52" y1="25" x2="52" y2="81" gradientUnits="userSpaceOnUse">
<stop stop-color="#FFA037"/>
<stop offset="1" stop-color="#FA7025"/>
</linearGradient>
</defs>
</svg>
