<svg width="42" height="42" viewBox="0 0 42 42" fill="none" xmlns="http://www.w3.org/2000/svg">
<path d="M21 39.3999C3.40073 36.4179 4.81727 7.6033 4.81727 7.6033C16.1738 11.5806 21 2.49585 21 2.49585C21 2.49585 25.8262 11.5793 37.1827 7.6033C37.1827 7.6033 38.5993 36.4179 21 39.3999Z" fill="#168DE2"/>
<path d="M20.9999 36.8111C9.41558 34.4604 7.60958 17.9417 7.37158 10.8971C8.37195 11.0689 9.35449 11.1555 10.3141 11.1555C15.4801 11.1555 18.9623 8.72458 20.9999 6.63477C23.0389 8.72458 26.521 11.1555 31.6858 11.1555C32.6441 11.1555 33.6279 11.0689 34.6283 10.8971C34.3903 17.9417 32.5843 34.4604 20.9999 36.8111Z" fill="#3AA2EB"/>
<path d="M20.9999 9.53027L23.9183 15.4446L30.4461 16.3941L25.723 20.9975L26.8379 27.4974L20.9999 24.4288L15.1619 27.4974L16.2768 20.9975L11.5537 16.3941L18.0815 15.4446L20.9999 9.53027Z" fill="white"/>
<path d="M41.1766 39.5041H31.3206V33.0259H41.1766L37.9744 36.265L41.1766 39.5041ZM0.823486 39.5041H10.6795V33.0259H0.823486L4.02567 36.265L0.823486 39.5041Z" fill="#FFBD49"/>
<path d="M6.15356 28.6326H35.845V36.2664H6.15356V28.6326Z" fill="#FFCB5A"/>
<path d="M31.3205 39.5042L35.845 36.2651H31.3205V39.5042ZM10.6794 39.5042L6.15356 36.2651H10.6794V39.5042Z" fill="#EC9821"/>
<path d="M6.15356 31.8131C6.15356 32.087 6.26238 32.3497 6.45607 32.5434C6.64976 32.7371 6.91246 32.8459 7.18638 32.8459C7.4603 32.8459 7.723 32.7371 7.9167 32.5434C8.11039 32.3497 8.2192 32.087 8.2192 31.8131V30.4869C8.2192 30.0083 8.6112 29.6163 9.08975 29.6227C9.74266 29.6227 10.0328 29.9969 10.0328 30.4398V32.452C10.0328 33.0171 10.4516 33.5147 11.0167 33.5478C11.157 33.5543 11.2971 33.5324 11.4287 33.4833C11.5603 33.4342 11.6807 33.3591 11.7824 33.2623C11.8842 33.1655 11.9654 33.0491 12.021 32.9201C12.0766 32.7911 12.1056 32.6522 12.1061 32.5118V31.7622C12.1061 31.2836 12.4917 30.8916 12.9767 30.8916C13.683 30.9718 13.9668 31.3256 13.9668 31.808V32.8554C13.9668 33.4205 14.3856 33.9182 14.943 33.9512C15.5412 33.978 16.0325 33.5058 16.0325 32.9152V31.2836C16.0325 30.7847 16.4576 30.4131 16.9565 30.4194H16.9768C17.4821 30.4131 17.9008 30.7847 17.9008 31.2836V32.3883C17.9008 32.9458 18.3196 33.4447 18.877 33.4778C19.4752 33.5045 19.9665 33.0323 19.9665 32.4418L19.9677 31.458C19.9677 30.8687 20.4603 30.394 21.0572 30.4258C21.6159 30.4551 22.0359 30.9565 22.0359 31.5165V32.4163C22.0523 32.6821 22.1704 32.9313 22.3657 33.1123C22.5609 33.2933 22.8184 33.3922 23.0846 33.3884C23.3508 33.3846 23.6054 33.2785 23.7954 33.0921C23.9855 32.9056 24.0965 32.6532 24.1054 32.3871V30.4882C24.1054 29.3503 25.919 29.3325 25.919 30.4411V32.9165C25.919 33.4816 26.3377 33.9792 26.8952 34.0123C27.4934 34.0391 27.9847 33.5669 27.9847 32.9763V31.7634C27.9847 31.2849 28.3767 30.8929 28.8552 30.8929L28.915 30.8992H28.9277C29.0479 30.8981 29.167 30.9207 29.2783 30.966C29.3896 31.0112 29.4908 31.0781 29.5761 31.1628C29.6613 31.2474 29.7289 31.3481 29.7749 31.4591C29.8209 31.5701 29.8444 31.6891 29.8441 31.8092V32.5245C29.8441 33.0896 30.2628 33.5872 30.8279 33.6203C30.9682 33.6269 31.1084 33.6049 31.24 33.5559C31.3716 33.5068 31.4919 33.4316 31.5937 33.3348C31.6955 33.238 31.7766 33.1216 31.8323 32.9927C31.8879 32.8637 31.9168 32.7248 31.9174 32.5843V31.6171C31.9174 31.1194 32.3361 30.7465 32.8337 30.7529H32.8592C33.3581 30.7465 33.7756 31.1182 33.7756 31.6171V32.452C33.7756 33.0094 34.1943 33.5083 34.7517 33.5414C35.3499 33.5682 35.8412 33.096 35.8412 32.5054V28.6338H6.15356V31.8131Z" fill="#F7B346"/>
<path d="M21 9.53027V18.8034L23.9184 15.4446L21 9.53027ZM30.4462 16.3941L25.7231 20.9975L21 18.8034L30.4462 16.3941Z" fill="#E5E5E5"/>
<path d="M26.8379 27.4973L20.9999 24.4288V18.8033L26.8379 27.4973ZM15.1619 27.4973L20.9999 18.8033L16.2768 20.9975L15.1619 27.6004V27.4973ZM11.5537 16.394L18.0815 15.4446L20.9999 18.8033L11.5537 16.394Z" fill="#E5E5E5"/>
<path d="M21 39.3999C3.40073 36.4179 4.81727 7.6033 4.81727 7.6033C16.1738 11.5806 21 2.49585 21 2.49585C21 2.49585 25.8262 11.5793 37.1827 7.6033C37.1827 7.6033 38.5993 36.4179 21 39.3999Z" fill="#168DE2"/>
<path d="M20.9999 36.8111C9.41558 34.4604 7.60958 17.9417 7.37158 10.8971C8.37195 11.0689 9.35449 11.1555 10.3141 11.1555C15.4801 11.1555 18.9623 8.72458 20.9999 6.63477C23.0389 8.72458 26.521 11.1555 31.6858 11.1555C32.6441 11.1555 33.6279 11.0689 34.6283 10.8971C34.3903 17.9417 32.5843 34.4604 20.9999 36.8111Z" fill="#3AA2EB"/>
<path d="M20.9999 9.53027L23.9183 15.4446L30.4461 16.3941L25.723 20.9975L26.8379 27.4974L20.9999 24.4288L15.1619 27.4974L16.2768 20.9975L11.5537 16.3941L18.0815 15.4446L20.9999 9.53027Z" fill="white"/>
<path d="M41.1766 39.5041H31.3206V33.0259H41.1766L37.9744 36.265L41.1766 39.5041ZM0.823486 39.5041H10.6795V33.0259H0.823486L4.02567 36.265L0.823486 39.5041Z" fill="#FFBD49"/>
<path d="M6.15356 28.6326H35.845V36.2664H6.15356V28.6326Z" fill="#FFCB5A"/>
<path d="M31.3205 39.5042L35.845 36.2651H31.3205V39.5042ZM10.6794 39.5042L6.15356 36.2651H10.6794V39.5042Z" fill="#EC9821"/>
<path d="M6.15356 31.8131C6.15356 32.087 6.26238 32.3497 6.45607 32.5434C6.64976 32.7371 6.91246 32.8459 7.18638 32.8459C7.4603 32.8459 7.723 32.7371 7.9167 32.5434C8.11039 32.3497 8.2192 32.087 8.2192 31.8131V30.4869C8.2192 30.0083 8.6112 29.6163 9.08975 29.6227C9.74266 29.6227 10.0328 29.9969 10.0328 30.4398V32.452C10.0328 33.0171 10.4516 33.5147 11.0167 33.5478C11.157 33.5543 11.2971 33.5324 11.4287 33.4833C11.5603 33.4342 11.6807 33.3591 11.7824 33.2623C11.8842 33.1655 11.9654 33.0491 12.021 32.9201C12.0766 32.7911 12.1056 32.6522 12.1061 32.5118V31.7622C12.1061 31.2836 12.4917 30.8916 12.9767 30.8916C13.683 30.9718 13.9668 31.3256 13.9668 31.808V32.8554C13.9668 33.4205 14.3856 33.9182 14.943 33.9512C15.5412 33.978 16.0325 33.5058 16.0325 32.9152V31.2836C16.0325 30.7847 16.4576 30.4131 16.9565 30.4194H16.9768C17.4821 30.4131 17.9008 30.7847 17.9008 31.2836V32.3883C17.9008 32.9458 18.3196 33.4447 18.877 33.4778C19.4752 33.5045 19.9665 33.0323 19.9665 32.4418L19.9677 31.458C19.9677 30.8687 20.4603 30.394 21.0572 30.4258C21.6159 30.4551 22.0359 30.9565 22.0359 31.5165V32.4163C22.0523 32.6821 22.1704 32.9313 22.3657 33.1123C22.5609 33.2933 22.8184 33.3922 23.0846 33.3884C23.3508 33.3846 23.6054 33.2785 23.7954 33.0921C23.9855 32.9056 24.0965 32.6532 24.1054 32.3871V30.4882C24.1054 30.0338 24.4325 29.624 25.0485 29.624C25.1602 29.6166 25.2722 29.6324 25.3776 29.6701C25.483 29.7079 25.5795 29.7669 25.6611 29.8435C25.7428 29.9202 25.8078 30.0127 25.8521 30.1155C25.8965 30.2183 25.9193 30.3291 25.919 30.4411V32.9165C25.919 33.4816 26.3377 33.9792 26.8952 34.0123C27.4934 34.0391 27.9847 33.5669 27.9847 32.9763V31.7634C27.9847 31.2849 28.3767 30.8929 28.8552 30.8929C29.5603 30.9718 29.8454 31.3256 29.8454 31.8092V32.5245C29.8454 33.0896 30.2641 33.5872 30.8292 33.6203C30.9695 33.6269 31.1097 33.6049 31.2413 33.5559C31.3729 33.5068 31.4932 33.4316 31.595 33.3348C31.6968 33.238 31.7779 33.1216 31.8335 32.9927C31.8892 32.8637 31.9181 32.7248 31.9187 32.5843V31.6171C31.9187 31.1194 32.3374 30.7465 32.835 30.7529H32.8605C33.3594 30.7465 33.7768 31.1182 33.7768 31.6171V32.452C33.7768 33.0094 34.1956 33.5083 34.753 33.5414C35.3512 33.5682 35.8425 33.096 35.8425 32.5054V28.6338H6.15356V31.8131Z" fill="#F7B346"/>
<path d="M21 9.53027V18.8034L23.9184 15.4446L21 9.53027ZM30.4462 16.3941L25.7231 20.9975L21 18.8034L30.4462 16.3941Z" fill="#E5E5E5"/>
<path d="M26.8379 27.4973L20.9999 24.4288V18.8033L26.8379 27.4973ZM15.1619 27.4973L20.9999 18.8033L16.2768 20.9975L15.1619 27.6004V27.4973ZM11.5537 16.394L18.0815 15.4446L20.9999 18.8033L11.5537 16.394Z" fill="#E5E5E5"/>
</svg>
