<svg width="64" height="64" viewBox="0 0 64 64" fill="none" xmlns="http://www.w3.org/2000/svg">
<rect width="64" height="64" rx="32" fill="#7B7FDA" fill-opacity="0.15"/>
<path d="M45 44H44V37C43.9983 36.3811 43.8051 35.7778 43.4471 35.273C43.089 34.7681 42.5835 34.3863 42 34.18V44H40V30.16C39.9993 29.6321 39.8594 29.1137 39.5942 28.6572C39.3291 28.2007 38.9482 27.8222 38.49 27.56L33.49 24.7C33.3334 24.6125 33.1695 24.5389 33 24.48V23H35C35.1307 22.9985 35.2598 22.9713 35.38 22.92C35.6243 22.8186 35.8185 22.6244 35.92 22.38C36.02 22.1366 36.02 21.8635 35.92 21.62C35.8724 21.4973 35.801 21.3851 35.71 21.29L32.71 18.29C32.6178 18.2001 32.5092 18.1288 32.39 18.08V18.08H32.29C32.2268 18.0752 32.1632 18.0752 32.1 18.08H31.98C31.9168 18.0752 31.8532 18.0752 31.79 18.08H31.69C31.57 18.1273 31.4611 18.1987 31.3699 18.2899C31.2787 18.3811 31.2073 18.4901 31.16 18.61V18.61C31.1514 18.6394 31.1514 18.6706 31.16 18.7C31.0838 18.786 31.029 18.8888 31 19V24.48C30.8305 24.5389 30.6666 24.6125 30.51 24.7L25.51 27.56C25.0518 27.8222 24.6709 28.2007 24.4058 28.6572C24.1406 29.1137 24.0007 29.6321 24 30.16V44H22V34.18C21.4165 34.3863 20.911 34.7681 20.5529 35.273C20.1949 35.7778 20.0017 36.3811 20 37V44H19C18.7348 44 18.4804 44.1054 18.2929 44.2929C18.1054 44.4805 18 44.7348 18 45C18 45.2652 18.1054 45.5196 18.2929 45.7071C18.4804 45.8947 18.7348 46 19 46H45C45.2652 46 45.5196 45.8947 45.7071 45.7071C45.8946 45.5196 46 45.2652 46 45C46 44.7348 45.8946 44.4805 45.7071 44.2929C45.5196 44.1054 45.2652 44 45 44ZM33 30H35V32H33V30ZM33 34H35V36H33V34ZM33 38H35V40H33V38ZM29 30H31V32H29V30ZM29 34H31V36H29V34ZM29 38H31V40H29V38ZM30 44V43C30 42.7348 30.1054 42.4805 30.2929 42.2929C30.4804 42.1054 30.7348 42 31 42H33C33.2652 42 33.5196 42.1054 33.7071 42.2929C33.8946 42.4805 34 42.7348 34 43V44H30Z" fill="#7B7FDA"/>
</svg>
