<svg width="64" height="64" viewBox="0 0 64 64" fill="none" xmlns="http://www.w3.org/2000/svg">
<rect width="64" height="64" rx="32" fill="#68BC98" fill-opacity="0.15"/>
<path d="M28.0001 30.6667C29.0549 30.6667 30.0861 30.3539 30.9631 29.7678C31.8402 29.1818 32.5238 28.3489 32.9274 27.3743C33.3311 26.3998 33.4367 25.3274 33.2309 24.2929C33.0251 23.2583 32.5172 22.308 31.7713 21.5621C31.0254 20.8162 30.0751 20.3083 29.0406 20.1025C28.006 19.8967 26.9336 20.0023 25.9591 20.406C24.9846 20.8096 24.1516 21.4932 23.5656 22.3703C22.9795 23.2474 22.6667 24.2785 22.6667 25.3333C22.6667 26.7478 23.2287 28.1044 24.2288 29.1046C25.229 30.1048 26.5856 30.6667 28.0001 30.6667ZM38.6667 33.3333C39.4579 33.3333 40.2312 33.0987 40.889 32.6592C41.5468 32.2197 42.0595 31.595 42.3623 30.8641C42.665 30.1332 42.7442 29.3289 42.5899 28.553C42.4355 27.7771 42.0546 27.0643 41.4952 26.5049C40.9358 25.9455 40.223 25.5645 39.4471 25.4102C38.6712 25.2559 37.8669 25.3351 37.136 25.6378C36.4051 25.9406 35.7804 26.4533 35.3409 27.1111C34.9013 27.7689 34.6667 28.5422 34.6667 29.3333C34.6667 30.3942 35.0882 31.4116 35.8383 32.1618C36.5885 32.9119 37.6059 33.3333 38.6667 33.3333ZM44.0001 42.6667C44.3537 42.6667 44.6928 42.5262 44.9429 42.2761C45.1929 42.0261 45.3334 41.687 45.3334 41.3333C45.3323 40.0872 44.982 38.8663 44.3222 37.8092C43.6624 36.752 42.7195 35.901 41.6005 35.3526C40.4816 34.8042 39.2313 34.5805 37.9915 34.7067C36.7518 34.8329 35.5723 35.304 34.5867 36.0667C33.2808 34.7658 31.6188 33.8808 29.8105 33.5232C28.0022 33.1657 26.1285 33.3516 24.4257 34.0575C22.7229 34.7634 21.2673 35.9578 20.2424 37.4899C19.2175 39.022 18.6692 40.8233 18.6667 42.6667C18.6667 43.0203 18.8072 43.3594 19.0573 43.6095C19.3073 43.8595 19.6465 44 20.0001 44H36.0001C36.3537 44 36.6928 43.8595 36.9429 43.6095C37.1929 43.3594 37.3334 43.0203 37.3334 42.6667" fill="#68BC98"/>
</svg>
