<svg width="23" height="23" viewBox="0 0 23 23" fill="none" xmlns="http://www.w3.org/2000/svg">
<path d="M10.234 1.50305C10.5587 1.50254 10.9211 1.50305 11.3283 1.50305C14.5852 1.50305 14.9712 1.51474 16.2574 1.5732C17.4468 1.62759 18.0923 1.82635 18.5222 1.99333C19.0915 2.21446 19.4974 2.47879 19.924 2.90579C20.351 3.33278 20.6153 3.73945 20.8369 4.30878C21.0039 4.73832 21.2028 5.3839 21.257 6.57339C21.3154 7.85947 21.3281 8.2458 21.3281 11.5017C21.3281 14.7575 21.3154 15.1438 21.257 16.4299C21.2026 17.6194 21.0039 18.265 20.8369 18.6945C20.6158 19.2639 20.351 19.6693 19.924 20.096C19.4971 20.523 19.0918 20.7873 18.5222 21.0084C18.0928 21.1762 17.4468 21.3744 16.2574 21.4288C14.9715 21.4873 14.5852 21.5 11.3283 21.5C8.07103 21.5 7.685 21.4873 6.39909 21.4288C5.20975 21.3739 4.56425 21.1752 4.13401 21.0082C3.56475 20.7871 3.15814 20.5227 2.73119 20.0957C2.30425 19.6687 2.03995 19.2631 1.81835 18.6935C1.65138 18.264 1.4524 17.6184 1.39827 16.4289C1.33982 15.1428 1.32812 14.7565 1.32812 11.4986C1.32812 8.24071 1.33982 7.85642 1.39827 6.57034C1.45265 5.38085 1.65138 4.73527 1.81835 4.30522C2.03944 3.73589 2.30425 3.32923 2.73119 2.90223C3.15814 2.47523 3.56475 2.2109 4.13401 1.98927C4.564 1.82152 5.20975 1.62327 6.39909 1.56862C7.52439 1.51779 7.96048 1.50254 10.234 1.5V1.50305Z" fill="#301446" stroke="white" stroke-width="2"/>
<path d="M16.8281 5.00052H16.8607C17.3976 5.01772 17.8281 5.45891 17.8281 6C17.8281 6.55198 17.3801 7 16.8281 7C16.2761 7 15.8281 6.55198 15.8281 6C15.8281 5.44804 16.2759 5.00052 16.8281 5.00052Z" fill="#301446" stroke="white"/>
<path d="M11.5281 7.5C13.8476 7.5 15.7281 9.38029 15.7281 11.7C15.7281 14.0194 13.8476 15.9 11.5281 15.9C9.20841 15.9 7.32812 14.0194 7.32812 11.7C7.32812 9.38029 9.20841 7.5 11.5281 7.5Z" fill="#301446" stroke="white"/>
</svg>
