<svg width="3" height="53" viewBox="0 0 3 53" fill="none" xmlns="http://www.w3.org/2000/svg">
<path opacity="0.5" fill-rule="evenodd" clip-rule="evenodd" d="M-3.27609e-05 0.591309L-3.30714e-05 5.5827H2.99997L2.99997 0.591309H-3.27609e-05ZM-3.3382e-05 10.5741L-3.36925e-05 15.5655H2.99997L2.99997 10.5741H-3.3382e-05ZM-3.4003e-05 20.5569L-3.43136e-05 25.5483H2.99997L2.99997 20.5569H-3.4003e-05ZM-3.46241e-05 30.5397L-3.49346e-05 35.5311H2.99996L2.99997 30.5397H-3.46241e-05ZM-3.52452e-05 40.5225L-3.55557e-05 45.5139H2.99996L2.99996 40.5225H-3.52452e-05ZM-3.58662e-05 50.5052L-3.60214e-05 53H2.99996L2.99996 50.5052H-3.58662e-05Z" fill="#301446"/>
</svg>
