<svg width="134" height="22" viewBox="0 0 134 22" fill="none" xmlns="http://www.w3.org/2000/svg">
<path d="M120.705 18.4815V4.20838H124.17V5.72501C125.211 4.96669 126.957 3.84295 128.936 3.84295C133.285 3.84295 133.572 6.48333 133.572 9.4366V18.4815H130.133V9.8283C130.133 7.65843 129.717 6.87503 127.815 6.87503C126.382 6.87503 125.028 7.52826 124.168 7.99878V18.4815H120.705ZM110.548 15.9976C113.309 15.9976 113.987 13.9328 113.987 11.3449C113.987 8.91354 113.309 6.6135 110.497 6.6135C107.736 6.6135 106.981 8.91354 106.981 11.3712C106.98 14.0116 107.839 15.9976 110.548 15.9976ZM110.366 18.7944C105.964 18.7944 103.49 16.0238 103.49 11.4751C103.49 6.66485 106.354 3.84175 110.574 3.84175C115.313 3.84175 117.501 6.63858 117.501 11.3437C117.502 16.2591 114.481 18.7944 110.366 18.7944ZM95.3379 18.7944C93.3328 18.7944 91.7433 18.5329 90.5456 18.1937L90.9623 15.5008C92.4467 15.736 93.906 15.9713 94.9999 15.9713C97.214 15.9713 97.8648 15.2918 97.8648 14.5072C97.8648 12.3111 90.702 13.1745 90.702 8.12895C90.702 5.2533 93.3065 3.84175 96.2753 3.84175C97.9424 3.84175 99.4531 4.1821 100.547 4.5738L99.9738 7.16164C98.8536 6.90011 97.786 6.63858 96.2753 6.63858C94.687 6.63858 94.1664 7.34436 94.1664 7.94504C94.1664 10.2188 101.277 9.59185 101.277 14.3233C101.275 17.9059 97.7072 18.7944 95.3379 18.7944ZM82.4715 18.7944C80.4665 18.7944 78.877 18.5329 77.6792 18.1937L78.096 15.5008C79.5804 15.736 81.0385 15.9713 82.1336 15.9713C84.3476 15.9713 84.9985 15.2918 84.9985 14.5072C84.9985 12.3111 77.8356 13.1745 77.8356 8.12895C77.8356 5.2533 80.4402 3.84175 83.409 3.84175C85.0761 3.84175 86.5868 4.1821 87.6806 4.5738L87.1074 7.16164C85.9873 6.90011 84.9197 6.63858 83.409 6.63858C81.8207 6.63858 81.2988 7.34436 81.2988 7.94504C81.2988 10.2188 88.4091 9.59185 88.4091 14.3233C88.4091 17.9059 84.8408 18.7944 82.4715 18.7944ZM66.2972 9.98594H71.9231C71.9494 7.84234 71.0896 6.35197 69.3711 6.35197C67.6252 6.35197 66.4537 7.63335 66.2972 9.98594ZM70.0745 18.7944C65.595 18.7944 62.7564 17.1738 62.7564 11.5802C62.7564 5.75129 65.7001 3.86922 69.7103 3.86922C73.8255 3.86922 75.4926 6.58723 75.4926 11.0571V12.3122H66.2208C66.2208 15.4494 68.1745 15.9713 70.7003 15.9713C71.6903 15.9713 73.3824 15.6309 74.5552 15.3957L75.1021 18.0886C73.9282 18.4552 72.027 18.7944 70.0745 18.7944ZM49.7062 18.4815V0H53.2482V15.6059H61.2434V18.4815H49.7062ZM37.0751 18.7944C32.8034 18.7944 32.4917 16.1015 32.4917 13.1745V4.20838H35.9561V12.7828C35.9561 14.8475 36.2952 15.736 38.1701 15.736C39.6545 15.736 41.1915 14.9777 41.8686 14.6123V4.20838H45.333V18.4803H41.8686V16.9386C40.9299 17.6181 39.1064 18.7944 37.0751 18.7944Z" fill="#1A3B5F"/>
<mask id="mask0_553_2083" style="mask-type:alpha" maskUnits="userSpaceOnUse" x="0" y="0" width="25" height="22">
<path fill-rule="evenodd" clip-rule="evenodd" d="M16.3321 0.523926H24.3799V17.8972H16.3321C12.9019 17.8972 12.7678 21.171 12.7601 21.4612H11.7397C11.7351 21.171 11.5984 17.8972 8.20077 17.8972H0.0358752L0 17.3884V0.523926H8.16729C9.94157 0.523926 11.4851 1.53587 12.2515 3.01633C13.0144 1.53587 14.5579 0.523926 16.3321 0.523926ZM5.4042 9.26585C4.85301 8.86775 4.38316 8.41009 3.99459 7.89514L3.04287 8.59023C3.35373 9.22054 3.79132 9.85459 4.35565 10.4924C4.91881 11.1302 5.58954 11.7025 6.3679 12.2114C7.14626 12.7204 8.02145 13.1316 8.99346 13.4473C9.96551 13.7634 11.0165 13.9207 12.144 13.9207C13.2714 13.9207 14.3223 13.7634 15.2944 13.4473C16.2664 13.1316 17.1416 12.7204 17.9201 12.2114C18.6971 11.7025 19.3678 11.1302 19.9322 10.4924C20.4966 9.85459 20.9342 9.22054 21.245 8.59023L20.2921 7.89514C19.9036 8.41009 19.4337 8.86663 18.8825 9.26585C18.3324 9.66508 17.7323 9.99428 17.0842 10.2516C16.4361 10.5092 15.7523 10.7059 15.0326 10.8407C14.3128 10.9751 13.5894 11.0433 12.8637 11.0433H11.4242C10.6973 11.0433 9.9751 10.9751 9.25535 10.8407C8.53553 10.7059 7.85165 10.5092 7.20364 10.2516C6.55442 9.99316 5.95538 9.66508 5.4042 9.26585Z" fill="white"/>
</mask>
<g mask="url(#mask0_553_2083)">
<path d="M24.3799 0.506836H-0.119629V21.4608H24.3799V0.506836Z" fill="url(#paint0_linear_553_2083)"/>
</g>
<defs>
<linearGradient id="paint0_linear_553_2083" x1="12.1302" y1="0.50686" x2="12.1302" y2="21.4605" gradientUnits="userSpaceOnUse">
<stop stop-color="#2CA1DA"/>
<stop offset="1" stop-color="#2B5CA9"/>
</linearGradient>
</defs>
</svg>
