<svg width="19" height="16" viewBox="0 0 19 16" fill="none" xmlns="http://www.w3.org/2000/svg">
<path d="M18.0418 2.24497C17.6419 2.42263 17.2268 2.5628 16.8008 2.66427C17.2702 2.2174 17.6231 1.65846 17.8222 1.03458C17.879 0.856476 17.6859 0.702463 17.5254 0.797825C16.9328 1.14999 16.2944 1.41418 15.628 1.58315C15.5893 1.59295 15.5494 1.59792 15.5094 1.59792C15.388 1.59792 15.27 1.55276 15.1772 1.47081C14.4682 0.844781 13.5563 0.5 12.6095 0.5C12.1998 0.5 11.7862 0.563971 11.3801 0.690153C10.1218 1.08114 9.15092 2.12098 8.84631 3.40391C8.73203 3.88512 8.70109 4.36676 8.75428 4.83544C8.76038 4.8893 8.73497 4.92689 8.71931 4.94452C8.69179 4.97543 8.65277 4.99315 8.61227 4.99315C8.60775 4.99315 8.60309 4.99293 8.59849 4.99249C5.84412 4.73612 3.36036 3.40672 1.60471 1.24922C1.51518 1.13918 1.3435 1.15267 1.27214 1.2753C0.928336 1.8662 0.746649 2.54204 0.746649 3.22976C0.746649 4.28371 1.16931 5.27695 1.90348 6.00102C1.59474 5.92769 1.29592 5.81219 1.01835 5.65774C0.884056 5.58299 0.718825 5.67906 0.716938 5.83294C0.697716 7.39866 1.61274 8.79185 2.98347 9.4192C2.95586 9.41986 2.92826 9.42017 2.90061 9.42017C2.68333 9.42017 2.46333 9.39915 2.2468 9.35769C2.09557 9.32876 1.96852 9.47249 2.01548 9.61938C2.46039 11.0109 3.65637 12.0367 5.08757 12.2696C3.89976 13.0684 2.51652 13.4897 1.07685 13.4897L0.628026 13.4895C0.489741 13.4895 0.372785 13.5798 0.337545 13.714C0.302831 13.8461 0.366773 13.9855 0.484694 14.0543C2.10698 15.0001 3.95743 15.5 5.83679 15.5C7.48186 15.5 9.02067 15.1729 10.4105 14.528C11.6847 13.9367 12.8106 13.0914 13.7571 12.0157C14.6387 11.0136 15.3282 9.85684 15.8062 8.57751C16.2618 7.35803 16.5027 6.05681 16.5027 4.81451V4.75533C16.5026 4.55586 16.5927 4.36817 16.7498 4.2404C17.346 3.75546 17.8652 3.18461 18.2928 2.54371C18.4057 2.37449 18.2277 2.1624 18.0418 2.24497Z" fill="#301446"/>
</svg>
