<svg width="180" height="29" viewBox="0 0 180 29" fill="none" xmlns="http://www.w3.org/2000/svg">
<path d="M49.8531 25.1274C44.1092 25.1274 43.6899 21.5278 43.6899 17.6143V5.62588H48.3483V17.0883C48.3483 19.8497 48.8035 21.0376 51.3251 21.0376C53.3211 21.0376 55.3874 20.0245 56.2978 19.5344V5.62588H60.9562V24.7075H56.2978V22.6455C55.0371 23.5555 52.5858 25.1274 49.8531 25.1274ZM66.8379 24.7075V0H71.601V20.8643H82.3522V24.709H66.8379V24.7075ZM94.2249 25.1274C88.2009 25.1274 84.3841 22.9608 84.3841 15.482C84.3841 7.68795 88.3417 5.17312 93.7352 5.17312C99.268 5.17312 101.51 8.80715 101.51 14.7842V16.4622H89.0424C89.0424 20.6566 91.6688 21.3544 95.0664 21.3544C96.3976 21.3544 98.6736 20.9002 100.249 20.5849L100.984 24.1846C99.4073 24.6732 96.8513 25.1274 94.2249 25.1274ZM89.1473 13.3497H96.712C96.7464 10.4837 95.592 8.49187 93.28 8.49187C90.9321 8.49187 89.3569 10.2043 89.1473 13.3497ZM110.895 25.1274C108.198 25.1274 106.062 24.7778 104.452 24.3235L105.012 20.7239C107.008 21.0377 108.97 21.3529 110.44 21.3529C113.417 21.3529 114.293 20.4444 114.293 19.3955C114.293 16.4592 104.662 17.6128 104.662 10.8677C104.662 7.02301 108.164 5.13576 112.156 5.13576C114.397 5.13576 116.428 5.59002 117.9 6.1145L117.129 9.57371C115.622 9.22405 114.186 8.87439 112.156 8.87439C110.019 8.87439 109.32 9.81727 109.32 10.6212C109.32 13.662 118.881 12.8222 118.881 19.1489C118.879 23.9395 114.082 25.1274 110.895 25.1274ZM128.194 25.1274C125.498 25.1274 123.361 24.7778 121.751 24.3235L122.311 20.7239C124.307 21.0377 126.269 21.3529 127.739 21.3529C130.716 21.3529 131.592 20.4444 131.592 19.3955C131.592 16.4592 121.961 17.6128 121.961 10.8677C121.961 7.02301 125.463 5.13576 129.455 5.13576C131.697 5.13576 133.727 5.59002 135.199 6.1145L134.428 9.57371C132.922 9.22405 131.486 8.87439 129.455 8.87439C127.318 8.87439 126.619 9.81727 126.619 10.6212C126.619 13.662 136.18 12.8222 136.18 19.1489C136.18 23.9395 131.382 25.1274 128.194 25.1274ZM148.401 25.1274C142.482 25.1274 139.157 21.4232 139.157 15.3415C139.157 8.91175 143.009 5.13726 148.683 5.13726C155.057 5.13726 157.998 8.87738 157.998 15.1667C157.998 21.737 153.936 25.1274 148.401 25.1274ZM148.647 21.3888C152.359 21.3888 153.269 18.6274 153.269 15.1682C153.269 11.9182 152.359 8.84301 148.577 8.84301C144.865 8.84301 143.849 11.9182 143.849 15.2041C143.849 18.732 145.005 21.3888 148.647 21.3888ZM162.305 24.7075V5.62588H166.963V7.65359C168.364 6.64048 170.711 5.13726 173.372 5.13726C179.22 5.13726 179.605 8.66669 179.605 12.616V24.7075H174.983V13.1405C174.983 10.2401 174.423 9.19118 171.865 9.19118C169.94 9.19118 168.117 10.0653 166.963 10.6944V24.709H162.305V24.7075Z" fill="white"/>
<path fill-rule="evenodd" clip-rule="evenodd" d="M16.4544 4.27323C17.4786 2.29185 19.5524 0.935059 21.9347 0.935059H32.9028V24.2051H21.9332C17.2416 24.2051 17.1411 28.7542 17.1357 28.9967L17.1357 29.0002H16.3166H15.7656C15.7656 28.803 15.6862 24.2051 11.013 24.2051H0.0479152L0 23.5238V0.935059H10.9696C13.3519 0.935059 15.4257 2.29185 16.4544 4.27323ZM7.42153 12.6699C6.68034 12.135 6.04996 11.5238 5.52738 10.8335L4.25164 11.7644C4.6694 12.6086 5.25636 13.4589 6.01402 14.3121C6.77018 15.1653 7.67159 15.9334 8.71674 16.6148C9.76189 17.2961 10.9373 17.8475 12.243 18.2704C13.5487 18.6933 14.9592 18.904 16.4745 18.904C17.9898 18.904 19.4003 18.6933 20.706 18.2704C22.0117 17.8475 23.1871 17.2961 24.2323 16.6148C25.2759 15.9334 26.1773 15.1653 26.935 14.3121C27.6912 13.4589 28.2796 12.6101 28.6974 11.7644L27.4171 10.8335C26.8946 11.5223 26.2627 12.135 25.523 12.6699C24.7818 13.2049 23.9762 13.6442 23.1063 13.9893C22.2363 14.3345 21.3169 14.5975 20.3511 14.7783C19.3854 14.9591 18.4136 15.0503 17.4388 15.0503H15.5057C14.5309 15.0503 13.5592 14.9591 12.5934 14.7783C11.6276 14.5975 10.7082 14.3345 9.83825 13.9893C8.96679 13.6442 8.16122 13.2049 7.42153 12.6699Z" fill="white"/>
</svg>
